<svg id="piirtul-logo"    
   width="100"
   height="31"
  viewBox="0 0 99.711723 29.220257" xmlns="http://www.w3.org/2000/svg"> 
  <path 
    style="fill:none;fill-opacity:1;stroke:none;stroke-width:1.67;stroke-opacity:1;paint-order:fill markers stroke"
    d="m 0.85562537,28.854344 c -0.43083,1.551524 4.97502003,-18.29927 4.97502003,-18.29927 0.008,-0.03307 -1.63995,6.041814 -1.63995,6.041814 0.71826,-2.100339 2.3942,-4.381836 4.7327801,-4.538387 2.5115495,-0.02799 2.4645295,3.305648 1.6586495,5.143797 -0.56141,1.362261 -1.0414195,2.539228 -2.4640995,2.906983 -0.7377601,0.190705 -1.6621601,-0.117574 -1.7652801,-1.039016 -0.0875,-1.229297 1.0256,-1.364338 1.9438501,-1.125577 1.8634895,0.484541 0.78661,0.280611 0.9924,0.488793 2.8787195,0.590617 6.9626495,-1.385264 7.4502895,-3.266531 0,0 0.37197,-2.08696 1.01668,-4.103777 -1.6e-4,-0.07104 -1.90899,5.314085 0.0546,7.417425 1.7102,1.744187 4.32322,0.189616 5.60207,-1.343709 0.9871,-1.029995 1.68699,-1.959046 2.03734,-3.612261 0.19537,-0.958966 0.74382,-3.64669 0.25439,-1.25251 -0.47675,2.16207 -1.38566,5.018378 0.75324,6.610242 2.30761,1.170685 4.70905,-0.894201 5.92463,-2.755679 1.38957,-1.887922 2.43103,-3.987424 3.03894,-6.251005 0.2617,-0.965283 0.13125,-3.0491437 -1.27365,-2.338399 -1.33527,0.9083 -0.4379,3.029879 1.06136,3.125028 0.99494,0.465632 2.32458,0.357287 3.02324,0.92758 0.36695,0.195032 -1.9243,4.871901 -0.16641,6.900026 1.66111,1.788597 4.15491,0.07222 5.54362,-1.226995 1.57113,-1.737333 3.23349,-4.568839 4.84168,-6.874275 0.24683,-0.334381 0.47328,-0.784265 0.70006,-1.231095 1.4512,-2.8593877 2.10138,-7.9060897 1.84777,-8.0745367 -0.12757,-0.44522298 -0.99258,-0.13980398 -1.58028,0.85652 -2.44421,4.406308 -2.90418,7.7156337 -3.97616,14.4068817 -0.007,1.554042 1.19504,3.500705 2.9739,2.810805 2.13764,-0.946675 4.061,-2.680381 4.89704,-4.813648 0.28495,-0.818896 1.60488,-5.390373 0.76328,-2.366004 0.71865,-2.488953 -1.74052,4.599526 -0.0949,6.777896 1.33784,1.705172 3.97562,-0.441666 4.82849,-2.034992 0.89945,-1.633668 1.76932,-5.345038 1.72565,-5.178494 -0.45994,2.241588 -1.71702,5.048034 0.09,6.99466 1.86823,1.72517 4.5298,0.05699 5.7159,-1.661895 2.70226,-3.958564 5.70189,-7.780819 6.87868,-12.6502947 0.46653,-2.286379 0.46323,-3.126108 -0.28003,-3.37686698 -0.5005,-0.07228 -1.286,0.76159498 -1.94516,2.21959998 -1.98156,4.098236 -3.05634,8.6027617 -3.33767,13.1446027 -0.0344,1.67722 1.45339,3.730114 3.30531,2.92935 2.19925,-1.028748 6.71716,-7.450342 4.57771,-4.583489"
    id="path1" 
    data-duration="2.5"
    sodipodi:nodetypes="ccccccccccccccccccccccsccccccccccccccccc" />
  <ellipse 
    style="fill:none;fill-opacity:1;stroke:none;stroke-width:0.939059;stroke-opacity:1;paint-order:fill markers stroke"
    id="path5" 
    data-duration="0.1" 
    ry="1.0842229"
    rx="1.0289067"
    cy="1.8122997"
    cx="79.849167"
    transform="matrix(0.97596627,0.21792165,-0.38964334,0.92096583,0,0)" />
  <path
    style="fill:none;fill-opacity:1;stroke:none;stroke-width:1.67;stroke-opacity:1;paint-order:fill markers stroke"
    d="m 79.342375,12.590265 c 0.87678,-3.622615 -1.54855,4.595844 0.65351,6.578562 1.51585,1.377002 4.83046,-1.094104 6.16006,-2.836394 1.11107,-1.444218 2.97743,-4.622649 2.88573,-4.548458 -1.08762,1.850619 -2.73184,3.894153 -1.30697,6.517264 1.7,2.268548 4.02115,0.806484 4.92996,-0.95231 1.08995,-1.449943 1.62976,-4.093317 0.35491,-5.284772 -1.31674,-1.112241 -2.34954,0.356407 -2.57534,1.901673 -0.4951,2.903607 2.58417,4.978376 5.63786,3.345754 1.49976,-1.028071 3.932415,-3.792042 2.284215,-2.022549"
    id="path2" 
    data-duration="1" 
    sodipodi:nodetypes="cccccccccc" /> 
  <ellipse 
    style="fill:none;fill-opacity:1;stroke:none;stroke-width:0.939059;stroke-opacity:1;paint-order:fill markers stroke"
    id="path4" 
    data-duration="1" 
    ry="1.0842229"
    rx="1.0289067"
    cy="4.3751163"
    cx="20.58946"
    transform="matrix(0.97596627,0.21792165,-0.38964334,0.92096583,0,0)" />
  <ellipse 
    style="fill:none;fill-opacity:1;stroke:none;stroke-width:0.939059;stroke-opacity:1;paint-order:fill markers stroke"
    id="path6"
    data-duration="0.1" 
    ry="1.0842229"
    rx="1.0289067"
    cy="2.6893713"
    cx="28.103086"
    transform="matrix(0.97596627,0.21792165,-0.38964334,0.92096583,0,0)" />
  <path 
    style="fill:none;fill-opacity:1;stroke:none;stroke-width:1.67;stroke-opacity:1;paint-order:fill markers stroke"
    d="m 43.693115,5.7174753 c -0.17087,-0.02254 -0.61572,-0.07875 -0.21704,-0.02621 0.82388,0.123175 1.65067,0.208578 2.4798,0.263244 0.69625,0.05186 1.39496,0.05527 2.09238,0.06578 1.44362,-0.01864 2.88714,-0.04232 4.32962,-0.116504 0.52108,-0.02025 1.68258,-0.04986 1.5379,-0.06071 -0.12508,0.0061 2.33097,-0.105516 0.57628,-0.0252"
    id="path3" 
    data-duration="0.3" 
    sodipodi:nodetypes="ccc" /> 
  <ellipse 
    style="fill:none;fill-opacity:1;stroke:none;stroke-width:0.939059;stroke-opacity:1;paint-order:fill markers stroke"
    id="path7" 
    data-duration="1.5" 
    ry="1.0842229"
    rx="1.0289067"
    cy="-8.5720596"
    cx="78.563705"
    transform="matrix(0.97596627,0.21792165,-0.38964334,0.92096583,0,0)" />
</svg>